<svg xmlns="http://www.w3.org/2000/svg" width="1200" height="300" viewBox="0 0 1200 300" role="img" aria-label="Calvin Kennedy">
  <defs>
    <linearGradient id="bg" x1="0" y1="0" x2="1" y2="1">
      <stop offset="0" stop-color="#0b1020"/>
      <stop offset="0.55" stop-color="#0f2a3a"/>
      <stop offset="1" stop-color="#1a1133"/>
    </linearGradient>
    <linearGradient id="accent" x1="0" y1="0" x2="1" y2="0">
      <stop offset="0" stop-color="#22c55e"/>
      <stop offset="0.5" stop-color="#06b6d4"/>
      <stop offset="1" stop-color="#a78bfa"/>
    </linearGradient>
    <filter id="softGlow" x="-30%" y="-50%" width="160%" height="200%">
      <feGaussianBlur stdDeviation="18" result="blur"/>
      <feColorMatrix in="blur" type="matrix"
        values="1 0 0 0 0
                0 1 0 0 0
                0 0 1 0 0
                0 0 0 0.55 0" result="glow"/>
      <feMerge>
        <feMergeNode in="glow"/>
        <feMergeNode in="SourceGraphic"/>
      </feMerge>
    </filter>
  </defs>

  <rect width="1200" height="300" fill="url(#bg)"/>

  <!-- Subtle grid -->
  <g opacity="0.14">
    <path d="M0 50 H1200 M0 100 H1200 M0 150 H1200 M0 200 H1200 M0 250 H1200" stroke="#94a3b8" stroke-width="1"/>
    <path d="M100 0 V300 M200 0 V300 M300 0 V300 M400 0 V300 M500 0 V300 M600 0 V300 M700 0 V300 M800 0 V300 M900 0 V300 M1000 0 V300 M1100 0 V300" stroke="#94a3b8" stroke-width="1"/>
  </g>

  <!-- Accent blobs -->
  <circle cx="220" cy="90" r="90" fill="#22c55e" opacity="0.12" filter="url(#softGlow)"/>
  <circle cx="940" cy="70" r="120" fill="#06b6d4" opacity="0.10" filter="url(#softGlow)"/>
  <circle cx="980" cy="230" r="140" fill="#a78bfa" opacity="0.10" filter="url(#softGlow)"/>

  <!-- Accent line -->
  <rect x="120" y="208" width="960" height="6" rx="3" fill="url(#accent)" opacity="0.95"/>

  <!-- Title -->
  <text x="120" y="150" fill="#e2e8f0" font-family="ui-sans-serif, system-ui, -apple-system, Segoe UI, Roboto, Helvetica, Arial" font-size="56" font-weight="800">
    Calvin Kennedy
  </text>
  <text x="120" y="190" fill="#cbd5e1" font-family="ui-sans-serif, system-ui, -apple-system, Segoe UI, Roboto, Helvetica, Arial" font-size="22" font-weight="600" opacity="0.95">
    @45ck  •  product engineering  •  AI engineering  •  TypeScript
  </text>

  <!-- Right-side tag chips -->
  <g transform="translate(760 118)">
    <rect x="0" y="0" width="320" height="44" rx="22" fill="#0b1220" opacity="0.92" stroke="#334155"/>
    <text x="18" y="29" fill="#e2e8f0" font-family="ui-sans-serif, system-ui, -apple-system, Segoe UI, Roboto, Helvetica, Arial" font-size="18" font-weight="700">
      Astro • React • Node • Terraform
    </text>
  </g>
</svg>
